<svg version="1.1" xmlns="http://www.w3.org/2000/svg" xmlns:xlink="http://www.w3.org/1999/xlink" width="542" height="616"><defs/><g><g/><g/><g/><g/><g/><g/><g/><g/><g/><g><rect fill="white" stroke="none" x="0" y="0" width="542" height="616"/></g><g><path fill="none" stroke="black" paint-order="fill stroke markers" d=" M 130.40456 70.778088 L 130.40456 616.840488" stroke-miterlimit="10" stroke-width="1.7502000000000002" stroke-dasharray="16.15569230769231,7.000800000000001"/><path fill="none" stroke="black" paint-order="fill stroke markers" d=" M 263.90776000000005 70.778088 L 263.90776000000005 616.840488" stroke-miterlimit="10" stroke-width="1.7502000000000002" stroke-dasharray="16.15569230769231,7.000800000000001"/><path fill="none" stroke="black" paint-order="fill stroke markers" d=" M 403.31232000000006 70.778088 L 403.31232000000006 616.840488" stroke-miterlimit="10" stroke-width="1.7502000000000002" stroke-dasharray="16.15569230769231,7.000800000000001"/></g><g><path fill="none" stroke="none"/><g><path fill="white" stroke="black" paint-order="fill stroke markers" d=" M 89.116956 14.071607999999998 L 171.692164 14.071607999999998 L 171.692164 70.778088 L 89.116956 70.778088 L 89.116956 14.071607999999998 Z" stroke-miterlimit="10" stroke-width="3.3603840000000003" stroke-dasharray=""/></g><g><g/><text fill="black" stroke="none" font-family="sans-serif" font-size="14pt" font-style="normal" font-weight="normal" text-decoration="normal" x="111.90456" y="49.775688" text-anchor="start" dominant-baseline="alphabetic">Bob</text></g><path fill="none" stroke="none"/><g><path fill="white" stroke="black" paint-order="fill stroke markers" d=" M 223.62015600000007 14.071607999999998 L 304.19536400000004 14.071607999999998 L 304.19536400000004 70.778088 L 223.62015600000007 70.778088 L 223.62015600000007 14.071607999999998 Z" stroke-miterlimit="10" stroke-width="3.3603840000000003" stroke-dasharray=""/></g><g><g/><text fill="black" stroke="none" font-family="sans-serif" font-size="14pt" font-style="normal" font-weight="normal" text-decoration="normal" x="246.40776000000005" y="49.775688" text-anchor="start" dominant-baseline="alphabetic">Eve</text></g><path fill="none" stroke="none"/><g><path fill="white" stroke="black" paint-order="fill stroke markers" d=" M 358.02471600000007 14.071607999999998 L 448.5999240000001 14.071607999999998 L 448.5999240000001 70.778088 L 358.02471600000007 70.778088 L 358.02471600000007 14.071607999999998 Z" stroke-miterlimit="10" stroke-width="3.3603840000000003" stroke-dasharray=""/></g><g><g/><text fill="black" stroke="none" font-family="sans-serif" font-size="14pt" font-style="normal" font-weight="normal" text-decoration="normal" x="380.81232000000006" y="49.775688" text-anchor="start" dominant-baseline="alphabetic">Alice</text></g></g><g><path fill="white" stroke="black" paint-order="fill stroke markers" d=" M 19.001200000000015 131.685048 L 19.00120000000002 131.685048 A 18.902160000000002 18.902160000000002 0 0 1 37.90336000000002 112.78288799999999 L 222.90576 112.78288799999999 L 222.90576 112.78288799999999 A 18.902160000000002 18.902160000000002 0 0 1 241.80792 131.685048 L 241.80792 163.18864799999997 L 241.80792 163.18864799999997 A 18.902160000000002 18.902160000000002 0 0 1 222.90576 182.09080799999998 L 37.90336000000002 182.09080799999998 L 37.90336000000002 182.09080799999998 A 18.902160000000002 18.902160000000002 0 0 1 19.00120000000002 163.18864799999997 L 19.001200000000015 131.685048" stroke-miterlimit="10" stroke-width="1.7502000000000002" stroke-dasharray=""/><g><text fill="black" stroke="none" font-family="sans-serif" font-size="14pt" font-style="normal" font-weight="normal" text-decoration="normal" x="48.404560000000004" y="142.186248" text-anchor="start" dominant-baseline="alphabetic">Sign Letter with</text><text fill="black" stroke="none" font-family="sans-serif" font-size="14pt" font-style="normal" font-weight="normal" text-decoration="normal" x="48.404560000000004" y="163.188648" text-anchor="start" dominant-baseline="alphabetic">Bob's Private Key</text></g><path fill="white" stroke="black" paint-order="fill stroke markers" d=" M 29.403360000000003 213.59440800000002 L 231.40576000000001 213.59440800000002 L 250.30792000000002 248.24836800000003 L 231.40576000000001 282.902328 L 29.403360000000003 282.902328 L 10.5012 248.24836800000003 L 29.403360000000003 213.59440800000002" stroke-miterlimit="10" stroke-width="1.7502000000000002" stroke-dasharray=""/><g><text fill="black" stroke="none" font-family="sans-serif" font-size="14pt" font-style="normal" font-weight="normal" text-decoration="normal" x="39.904560000000004" y="242.997768" text-anchor="start" dominant-baseline="alphabetic">Encrypt Letter with</text><text fill="black" stroke="none" font-family="sans-serif" font-size="14pt" font-style="normal" font-weight="normal" text-decoration="normal" x="39.904560000000004" y="264.00016800000003" text-anchor="start" dominant-baseline="alphabetic">Alice's Public Key</text></g><g><g><path fill="none" stroke="none"/><rect fill="white" stroke="none" x="158.20808000000002" y="314.4059280000001" width="217.30072" height="27.30312"/></g><text fill="black" stroke="none" font-family="sans-serif" font-size="14pt" font-style="normal" font-weight="normal" text-decoration="normal" x="161.35844000000003" y="333.3080880000001" text-anchor="start" dominant-baseline="alphabetic">Encrypted Love Letter</text></g><g><path fill="none" stroke="black" paint-order="fill stroke markers" d=" M 130.40456 341.70904800000005 L 403.31232000000006 341.70904800000005" stroke-miterlimit="10" stroke-width="1.7502000000000002" stroke-dasharray=""/><path fill="black" stroke="none" paint-order="stroke fill markers" d=" M 385.81032000000005 332.9580480000001 L 403.31232000000006 341.70904800000005 L 385.81032000000005 350.46004800000003 Z"/></g><path fill="white" stroke="black" paint-order="fill stroke markers" d=" M 300.81112 373.21264800000006 L 505.81352000000004 373.21264800000006 L 524.71568 407.86660800000004 L 505.81352000000004 442.520568 L 300.81112 442.520568 L 281.90896000000004 407.86660800000004 L 300.81112 373.21264800000006" stroke-miterlimit="10" stroke-width="1.7502000000000002" stroke-dasharray=""/><g><text fill="black" stroke="none" font-family="sans-serif" font-size="14pt" font-style="normal" font-weight="normal" text-decoration="normal" x="311.31232000000006" y="402.6160080000001" text-anchor="start" dominant-baseline="alphabetic">Decrypt Letter with</text><text fill="black" stroke="none" font-family="sans-serif" font-size="14pt" font-style="normal" font-weight="normal" text-decoration="normal" x="311.31232000000006" y="423.6184080000001" text-anchor="start" dominant-baseline="alphabetic">Alice's Private Key</text></g><path fill="white" stroke="black" paint-order="fill stroke markers" d=" M 274.40896000000004 492.926328 L 274.40896000000004 492.926328 A 18.902160000000002 18.902160000000002 0 0 1 293.31112 474.02416800000003 L 513.31352 474.02416800000003 L 513.31352 474.02416800000003 A 18.902160000000002 18.902160000000002 0 0 1 532.21568 492.926328 L 532.21568 524.429928 L 532.21568 524.429928 A 18.902160000000002 18.902160000000002 0 0 1 513.31352 543.332088 L 293.31112 543.332088 L 293.31112 543.332088 A 18.902160000000002 18.902160000000002 0 0 1 274.40896000000004 524.429928 L 274.40896000000004 492.926328" stroke-miterlimit="10" stroke-width="1.7502000000000002" stroke-dasharray=""/><g><text fill="black" stroke="none" font-family="sans-serif" font-size="14pt" font-style="normal" font-weight="normal" text-decoration="normal" x="303.81232000000006" y="503.42752800000005" text-anchor="start" dominant-baseline="alphabetic">Verify Signature with</text><text fill="black" stroke="none" font-family="sans-serif" font-size="14pt" font-style="normal" font-weight="normal" text-decoration="normal" x="303.81232000000006" y="524.429928" text-anchor="start" dominant-baseline="alphabetic">Bob's Public Key</text></g></g><g/><g/><g/></g></svg>